<?xml version="1.0" encoding="UTF-8"?>
<svg version="1.1" xmlns="http://www.w3.org/2000/svg" width="1600" height="330">
<path d="M0 0 C528 0 1056 0 1600 0 C1600 108.9 1600 217.8 1600 330 C1072 330 544 330 0 330 C0 221.1 0 112.2 0 0 Z " fill="#000000" transform="translate(0,0)"/>
<path d="M0 0 C10.69521649 8.37090172 10.69521649 8.37090172 12.48046875 11.94140625 C12.81046875 6.00140625 13.14046875 0.06140625 13.48046875 -6.05859375 C28.00046875 -6.05859375 42.52046875 -6.05859375 57.48046875 -6.05859375 C57.54837291 15.29151882 57.60355907 36.64154301 57.63590527 57.99173641 C57.65132804 67.90655846 57.67232904 77.8213083 57.70678711 87.73608398 C57.73683081 96.38486695 57.75607705 105.03359758 57.76273423 113.68243128 C57.76662131 118.25551086 57.775659 122.82844081 57.79765892 127.40147209 C57.81826152 131.71968159 57.8242554 136.03768207 57.81979179 140.35593605 C57.82060651 141.92750058 57.82642891 143.49907327 57.83808517 145.07059479 C57.96771812 163.47543903 55.66256175 183.17725212 45.48046875 198.94140625 C44.80757812 199.99585938 44.1346875 201.0503125 43.44140625 202.13671875 C39.16263897 208.67141015 34.76313726 214.21510007 28.48046875 218.94140625 C27.65933594 219.60785156 26.83820313 220.27429688 25.9921875 220.9609375 C19.24897107 226.22084149 12.50687355 229.13751551 4.48046875 231.94140625 C3.28421875 232.49828125 2.08796875 233.05515625 0.85546875 233.62890625 C-19.58191332 241.57677705 -49.33980679 240.05638441 -69.51953125 231.94140625 C-78.21258707 227.98136231 -86.3586716 223.31310994 -93.51953125 216.94140625 C-94.13054688 216.4 -94.7415625 215.85859375 -95.37109375 215.30078125 C-105.12688749 206.10368936 -113.18725914 193.2353573 -115.51953125 179.94140625 C-115.54344079 178.27491109 -115.54811481 176.60782779 -115.51953125 174.94140625 C-110.18265569 173.5109349 -104.84410675 172.08695376 -99.50390625 170.66894531 C-97.6876767 170.18569852 -95.87191622 169.70068516 -94.05664062 169.21386719 C-91.44652835 168.51422002 -88.83479219 167.82095429 -86.22265625 167.12890625 C-85.41209778 166.91016846 -84.60153931 166.69143066 -83.76641846 166.46606445 C-83.00593201 166.26585693 -82.24544556 166.06564941 -81.46191406 165.859375 C-80.79573059 165.68172607 -80.12954712 165.50407715 -79.44317627 165.32104492 C-77.51953125 164.94140625 -77.51953125 164.94140625 -73.51953125 164.94140625 C-73.29910156 165.74191406 -73.29910156 165.74191406 -73.07421875 166.55859375 C-70.35807225 175.58119535 -66.3318176 183.43729541 -58.51953125 188.94140625 C-57.85953125 189.27140625 -57.19953125 189.60140625 -56.51953125 189.94140625 C-56.51953125 190.60140625 -56.51953125 191.26140625 -56.51953125 191.94140625 C-54.63151042 192.39713542 -52.74348958 192.85286458 -50.85546875 193.30859375 C-48.51953125 193.94140625 -48.51953125 193.94140625 -45.78515625 194.9921875 C-41.73512936 196.16940824 -38.08937853 196.28454502 -33.89453125 196.25390625 C-33.10054932 196.2489917 -32.30656738 196.24407715 -31.48852539 196.23901367 C-21.83349123 196.04831868 -13.63512199 194.11299833 -5.359375 189.02734375 C-3.51953125 187.94140625 -3.51953125 187.94140625 -0.51953125 186.94140625 C0.54700708 185.12737019 0.54700708 185.12737019 1.48046875 182.94140625 C2.9501679 180.57105582 4.44199892 178.21635526 5.9453125 175.8671875 C10.25181899 167.65962169 10.98227719 160.07329131 11.16796875 150.87890625 C11.20212891 149.72712891 11.23628906 148.57535156 11.27148438 147.38867188 C11.35326696 144.57301415 11.4226425 141.75764054 11.48046875 138.94140625 C10.95155029 139.41046387 10.42263184 139.87952148 9.87768555 140.36279297 C8.82061401 141.29502686 8.82061401 141.29502686 7.7421875 142.24609375 C7.04826904 142.85952637 6.35435059 143.47295898 5.6394043 144.10498047 C-10.39577182 157.74476276 -28.33785783 158.92754842 -48.51953125 157.94140625 C-56.95143417 157.09077292 -64.83332561 154.43030605 -72.51953125 150.94140625 C-72.51953125 150.28140625 -72.51953125 149.62140625 -72.51953125 148.94140625 C-73.215625 148.86792969 -73.91171875 148.79445312 -74.62890625 148.71875 C-78.29521731 147.73280959 -80.84356287 145.82210672 -83.76953125 143.50390625 C-84.3409082 143.0543457 -84.91228516 142.60478516 -85.50097656 142.14160156 C-104.42883693 126.89504512 -113.49481251 106.91956887 -116.29248047 83.1171875 C-118.62120308 60.80151446 -112.35596306 37.65203897 -98.51953125 19.94140625 C-97.85953125 19.94140625 -97.19953125 19.94140625 -96.51953125 19.94140625 C-96.27074219 19.37035156 -96.02195312 18.79929687 -95.765625 18.2109375 C-91.20157203 9.898352 -82.52433434 4.51721776 -74.51953125 -0.05859375 C-73.76414062 -0.52136719 -73.00875 -0.98414062 -72.23046875 -1.4609375 C-51.76930681 -13.02747062 -19.43207049 -13.61126874 0 0 Z " fill="#D4D4D4" transform="translate(632.51953125,92.05859375)"/>
<path d="M0 0 C1.78356985 1.59935137 3.38347075 3.22703243 5 5 C5.33 0.38 5.66 -4.24 6 -9 C21.18 -9 36.36 -9 52 -9 C52 47.76 52 104.52 52 163 C37.15 163 22.3 163 7 163 C6.67 157.06 6.34 151.12 6 145 C4.9275 146.505625 3.855 148.01125 2.75 149.5625 C-1.95653545 155.46447874 -7.30676425 158.67659029 -14 162 C-14.65097656 162.33773437 -15.30195313 162.67546875 -15.97265625 163.0234375 C-31.97417998 170.66482708 -54.67221797 168.63299086 -71 163 C-87.00791377 156.82016689 -101.244818 145.95676925 -110 131 C-110 130.34 -110 129.68 -110 129 C-110.66 129 -111.32 129 -112 129 C-126.41303968 101.20342347 -129.19764675 71.15107991 -119.75 41.25 C-112.99880549 22.08466873 -98.85451331 4.880653 -81 -5 C-75.82328292 -7.4657688 -70.46664657 -9.2934807 -65 -11 C-64.16339844 -11.26683594 -63.32679688 -11.53367187 -62.46484375 -11.80859375 C-41.92982257 -17.06005419 -16.67170505 -12.99712516 0 0 Z " fill="#D4D4D4" transform="translate(271,95)"/>
<path d="M0 0 C1.03125 0.45375 2.0625 0.9075 3.125 1.375 C15.63238166 8.44438963 27.59788631 17.86801935 34 31 C34 31.99 34 32.98 34 34 C34.66 34 35.32 34 36 34 C36.95117508 36.37024211 37.88558689 38.74526563 38.8125 41.125 C39.07353516 41.77082031 39.33457031 42.41664063 39.60351562 43.08203125 C46.513225 60.99609258 45 76.3002568 45 96 C4.41 96 -36.18 96 -78 96 C-75.94611398 108.32331612 -74.07102699 116.56662294 -64 124 C-64 124.66 -64 125.32 -64 126 C-63.01 126 -62.02 126 -61 126 C-60.38898438 126.61488281 -59.77796875 127.22976562 -59.1484375 127.86328125 C-53.4442675 133.53633759 -43.70170576 134.91303628 -35.9375 135.25 C-24.93913224 135.08307705 -14.51712783 131.89018148 -6.25 124.5625 C-5.5075 123.716875 -4.765 122.87125 -4 122 C-3.113125 121.030625 -2.22625 120.06125 -1.3125 119.0625 C0.97067831 116.03883143 2.04718755 113.63801117 3 110 C8.44315856 110.54853536 13.36874394 111.56525843 18.5625 113.3125 C26.30810107 115.83074244 34.11232684 117.97141739 42 120 C41.71757805 134.40351945 30.49354838 146.78669814 20.59765625 156.3125 C4.28678116 170.20795432 -14.18441135 175.39638813 -35.25 175.5 C-36.49273682 175.50644531 -37.73547363 175.51289063 -39.01586914 175.51953125 C-50.9288644 175.35546431 -62.27307757 173.4001585 -73.125 168.375 C-73.8792627 168.03380127 -74.63352539 167.69260254 -75.41064453 167.34106445 C-82.33505823 164.08091185 -88.11311878 159.89286685 -94 155 C-94.76570313 154.45988281 -95.53140625 153.91976562 -96.3203125 153.36328125 C-97.15175781 152.68845703 -97.15175781 152.68845703 -98 152 C-98 151.34 -98 150.68 -98 150 C-98.99 149.67 -99.98 149.34 -101 149 C-119.45332692 129.621285 -124.93176885 104.09234013 -124.58886719 78.27685547 C-123.87215068 53.07647975 -113.93481223 31.11262229 -95.6875 13.6875 C-86.1805451 5.45081333 -75.86551724 0.02273778 -64 -4 C-63.04996094 -4.35320312 -62.09992188 -4.70640625 -61.12109375 -5.0703125 C-42.29054908 -10.67941091 -17.48560178 -8.36618793 0 0 Z " fill="#D4D4D4" transform="translate(1378,88)"/>
<path d="M0 0 C0.70253906 0.27585937 1.40507813 0.55171875 2.12890625 0.8359375 C14.95003176 6.20292027 25.21405235 13.2823901 34 24 C34.43183594 24.52078125 34.86367188 25.0415625 35.30859375 25.578125 C51.83946981 47.04116408 51 71.36391338 51 98 C10.08 98 -30.84 98 -73 98 C-70.10580008 109.57679968 -66.95422851 120.89077089 -56.9375 128.25 C-54.08784776 130.08953367 -54.08784776 130.08953367 -51 131 C-51 131.66 -51 132.32 -51 133 C-38.07888567 137.93859899 -24.22302274 138.381775 -11.25 133.625 C-1.84470787 128.92235394 5.56067474 122.10301796 9 112 C14.45866776 112.55070817 19.41294356 113.56968586 24.625 115.3125 C26.01254009 115.7619037 27.40057284 116.20978875 28.7890625 116.65625 C29.48418945 116.88054687 30.17931641 117.10484375 30.89550781 117.3359375 C36.22531329 119.01773227 41.61829237 120.49480365 47 122 C48.42417263 126.1142765 47.65992492 128.60540727 45.80322266 132.46875 C45.28187744 133.47421875 45.28187744 133.47421875 44.75 134.5 C44.39083496 135.20125 44.03166992 135.9025 43.66162109 136.625 C34.22167316 154.26647696 18.87340474 166.50053175 -0.0625 172.8125 C-0.76375 173.02261719 -1.465 173.23273438 -2.1875 173.44921875 C-4.15718919 174.00869747 -4.15718919 174.00869747 -6.5625 175.125 C-23.4616038 181.19134495 -46.57663999 178.18799107 -63 172 C-63.85722656 171.7009375 -64.71445312 171.401875 -65.59765625 171.09375 C-85.92594488 163.12476571 -102.29482696 145.66104083 -111.34765625 126.0859375 C-119.93781576 103.41836829 -121.63777467 76.12475029 -114 53 C-113.54947266 51.60201172 -113.54947266 51.60201172 -113.08984375 50.17578125 C-108.67203083 37.99332744 -100.78483928 25.57579305 -91 17 C-90.34 17 -89.68 17 -89 17 C-89 16.34 -89 15.68 -89 15 C-65.50699667 -5.82713062 -29.24120464 -11.65291954 0 0 Z " fill="#D4D4D4" transform="translate(825,86)"/>
<path d="M0 0 C69.3 0 138.6 0 210 0 C210 15.51 210 31.02 210 47 C183.27 47 156.54 47 129 47 C129 114.98 129 182.96 129 253 C112.83 253 96.66 253 80 253 C80 185.02 80 117.04 80 47 C53.6 47 27.2 47 0 47 C0 31.49 0 15.98 0 0 Z " fill="#D5D5D5" transform="translate(0,5)"/>
<path d="M0 0 C0.81984375 0.13664062 1.6396875 0.27328125 2.484375 0.4140625 C8.49633638 1.76574509 13.20952632 4.84170155 18.25 8.25 C18.92393799 8.70366943 19.59787598 9.15733887 20.29223633 9.62475586 C30.67459141 16.94237023 37.00453625 27.07322201 40.8125 39.0625 C41.12296265 40.03497681 41.12296265 40.03497681 41.43969727 41.02709961 C44.07573242 49.87196872 44.14403228 58.7782372 44.11352539 67.94555664 C44.11367142 69.10754578 44.11381744 70.26953491 44.1139679 71.46673584 C44.11327505 75.28122876 44.10551219 79.09567194 44.09765625 82.91015625 C44.09578984 85.56530337 44.09431775 88.22044779 44.09336853 90.87559509 C44.09027133 97.13330525 44.08207983 103.39099776 44.07201904 109.64870018 C44.06080766 116.77815409 44.05533483 123.90760889 44.05032361 131.03706944 C44.03989573 145.69138999 44.02157046 160.34569148 44 175 C28.82 175 13.64 175 -2 175 C-2.05607422 163.74841797 -2.05607422 163.74841797 -2.11328125 152.26953125 C-2.14358162 147.49802455 -2.17474312 142.72655421 -2.20898438 137.95507812 C-2.2631703 130.39300438 -2.31428572 122.83100256 -2.34643555 115.26879883 C-2.37257571 109.16729977 -2.41305344 103.0660443 -2.46318626 96.96469688 C-2.47978274 94.64491509 -2.49134171 92.32509124 -2.49761391 90.00525856 C-1.69908809 69.12318677 -1.69908809 69.12318677 -9.48046875 50.42578125 C-12.33292466 47.74931234 -15.51917607 45.76018937 -19 44 C-19.69738281 43.63519531 -20.39476562 43.27039063 -21.11328125 42.89453125 C-29.25153731 40.372663 -40.2456682 40.5443664 -48.35546875 43.02734375 C-55.64450913 47.10694619 -61.36157742 53.70725546 -63.65942383 61.78222656 C-66.05593239 72.09513419 -65.48332754 82.83405034 -65.51171875 93.359375 C-65.52858534 95.71877973 -65.54673821 98.07817559 -65.56611633 100.43756104 C-65.61340724 106.61219508 -65.64335161 112.78679312 -65.66955566 118.96154785 C-65.70473692 126.38910109 -65.76168972 133.81651613 -65.81494904 141.24395752 C-65.89321742 152.49595358 -65.94400916 163.74777178 -66 175 C-81.51 175 -97.02 175 -113 175 C-113 118.24 -113 61.48 -113 3 C-98.15 3 -83.3 3 -68 3 C-68 9.6 -68 16.2 -68 23 C-67.34 23 -66.68 23 -66 23 C-65.79375 22.29875 -65.5875 21.5975 -65.375 20.875 C-63.6165622 17.19826641 -61.19571859 14.52704921 -58 12 C-57.34 12 -56.68 12 -56 12 C-56 11.34 -56 10.68 -56 10 C-38.87409529 -2.32822218 -20.16461011 -3.90119341 0 0 Z " fill="#D4D4D4" transform="translate(456,83)"/>
<path d="M0 0 C10.79736847 10.32572055 16.75145884 26.42870073 17.68346024 41.249897 C17.74815412 44.4113789 17.75153661 47.5669258 17.73095703 50.72900391 C17.73124908 51.92039978 17.73154114 53.11179565 17.73184204 54.33929443 C17.73069564 57.57420725 17.72073438 60.80894216 17.70669413 64.0438199 C17.69410677 67.43638096 17.69301001 70.8289463 17.69064331 74.2215271 C17.68445188 80.63151725 17.66807306 87.04143836 17.64794433 93.45139825 C17.62551213 100.75498809 17.61457358 108.0585814 17.60455346 115.36219716 C17.58370448 130.37301985 17.54705784 145.38375299 17.50390625 160.39453125 C2.32390625 160.39453125 -12.85609375 160.39453125 -28.49609375 160.39453125 C-28.52582275 155.54991211 -28.52582275 155.54991211 -28.55615234 150.60742188 C-28.62311261 139.9264364 -28.70075149 129.24554767 -28.78362083 118.56467438 C-28.83352849 112.09001297 -28.87985919 105.61536745 -28.91796875 99.140625 C-28.95489115 92.89006863 -29.00127032 86.6396469 -29.05415726 80.38920593 C-29.07266419 78.00667182 -29.08778575 75.62410888 -29.09943771 73.24153137 C-29.11636329 69.89981349 -29.14541415 66.55840149 -29.17724609 63.21679688 C-29.17940628 62.23567932 -29.18156647 61.25456177 -29.18379211 60.24371338 C-29.30305145 50.41829302 -31.31826675 42.26584153 -37.49609375 34.39453125 C-40.0028899 32.32642443 -42.58026079 30.81113026 -45.49609375 29.39453125 C-46.11097656 29.03875 -46.72585938 28.68296875 -47.359375 28.31640625 C-54.96231275 25.03616254 -65.80847793 25.60610413 -73.49609375 28.39453125 C-81.79994343 32.99679714 -87.39366903 38.39135748 -90.53256226 47.35401917 C-91.90191781 52.25543461 -91.80395187 57.13796215 -91.81494141 62.19506836 C-91.83000984 63.79131042 -91.83000984 63.79131042 -91.84538269 65.4197998 C-91.87615563 68.92048629 -91.89323366 72.42109648 -91.91015625 75.921875 C-91.92887261 78.35568393 -91.94844637 80.78948641 -91.96884155 83.22328186 C-92.02011917 89.61662994 -92.05976843 96.00999905 -92.09698486 102.40344238 C-92.1370518 108.93242577 -92.18813191 115.46132202 -92.23828125 121.99023438 C-92.33498891 134.79161147 -92.41839209 147.59302467 -92.49609375 160.39453125 C-108.00609375 160.39453125 -123.51609375 160.39453125 -139.49609375 160.39453125 C-139.49609375 103.63453125 -139.49609375 46.87453125 -139.49609375 -11.60546875 C-124.64609375 -11.60546875 -109.79609375 -11.60546875 -94.49609375 -11.60546875 C-94.49609375 -5.00546875 -94.49609375 1.59453125 -94.49609375 8.39453125 C-93.83609375 8.39453125 -93.17609375 8.39453125 -92.49609375 8.39453125 C-92.26921875 7.67265625 -92.04234375 6.95078125 -91.80859375 6.20703125 C-90.23274247 2.83020708 -88.28732759 0.83686086 -85.49609375 -1.60546875 C-84.83609375 -1.60546875 -84.17609375 -1.60546875 -83.49609375 -1.60546875 C-83.49609375 -2.26546875 -83.49609375 -2.92546875 -83.49609375 -3.60546875 C-58.45239095 -22.93577928 -23.49952 -20.15677178 0 0 Z " fill="#D4D4D4" transform="translate(1219.49609375,97.60546875)"/>
<path d="M0 0 C0.68945351 -0.00794881 1.37890702 -0.01589762 2.08925307 -0.02408731 C4.39373198 -0.04329872 6.69574368 -0.0197279 9.00015259 0.0038147 C10.65454524 -0.00104267 12.30893202 -0.00848282 13.96330261 -0.01831055 C18.4533164 -0.03711903 22.94245747 -0.01828584 27.43240309 0.00835371 C32.13366789 0.030998 36.83489018 0.02276633 41.53619385 0.01885986 C49.43334189 0.01709402 57.33014655 0.03925024 65.22720337 0.07608032 C74.35055617 0.11838664 83.47340544 0.12544169 92.59683645 0.1129564 C101.37853527 0.10155498 110.16005718 0.11287884 118.9417305 0.1353035 C122.67603459 0.14457986 126.41023022 0.14634995 130.14454269 0.14213181 C134.54583962 0.13835623 138.94662633 0.15464772 143.34780693 0.18625259 C144.96063183 0.19471709 146.5735086 0.19645361 148.18634605 0.19087219 C150.39342126 0.18439476 152.59898806 0.20267019 154.8059082 0.22705078 C156.65588441 0.23320939 156.65588441 0.23320939 158.54323387 0.23949242 C163.64024492 0.98349877 167.34880224 3.0673081 171.02993774 6.7484436 C171.65493774 8.4359436 171.65493774 8.4359436 172.02993774 10.7484436 C172.19493774 11.7590686 172.35993774 12.7696936 172.52993774 13.8109436 C172.00807908 17.92058061 171.2003117 19.39869037 168.96743774 22.77578735 C168.3312854 23.74701538 167.69513306 24.71824341 167.03970337 25.71890259 C166.37648071 26.71865112 165.71325806 27.71839966 165.02993774 28.7484436 C163.78942798 30.65409085 162.54983597 32.56033586 161.31118774 34.4671936 C159.42052366 37.35994879 157.52796445 40.25145847 155.63540649 43.14297485 C151.38418817 49.64742691 147.19278529 56.18716538 143.02993774 62.7484436 C141.87551634 64.55867531 140.72056851 66.36857141 139.56509399 68.1781311 C129.24643526 83.64022617 129.24643526 83.64022617 120.02993774 99.7484436 C119.36993774 99.7484436 118.70993774 99.7484436 118.02993774 99.7484436 C117.78630493 100.43680298 117.54267212 101.12516235 117.29165649 101.8343811 C115.80995427 105.2565169 113.89039811 108.27390885 111.84243774 111.3734436 C111.02191839 112.63242339 110.20160768 113.8915392 109.38150024 115.15078735 C108.7767688 116.07480347 108.7767688 116.07480347 108.15982056 117.01748657 C106.66163208 119.31268024 105.18730697 121.62252874 103.71743774 123.9359436 C103.16314087 124.80606079 102.60884399 125.67617798 102.03775024 126.57266235 C100.41939936 129.13242746 98.81206275 131.69825742 97.20962524 134.26797485 C83.37133471 156.40704664 83.37133471 156.40704664 79.02993774 160.7484436 C71.57129113 161.10934586 71.57129113 161.10934586 68.02993774 158.7484436 C65.94099289 152.48160906 67.139486 146.32686435 68.46743774 139.9984436 C69.80460899 133.2417181 70.75761169 126.64470053 71.02993774 119.7484436 C71.07876099 118.68182495 71.07876099 118.68182495 71.12857056 117.59365845 C71.92050222 98.2233299 68.86619682 80.61060201 59.02993774 63.7484436 C59.02993774 63.0884436 59.02993774 62.4284436 59.02993774 61.7484436 C58.36993774 61.7484436 57.70993774 61.7484436 57.02993774 61.7484436 C56.59681274 60.8203186 56.16368774 59.8921936 55.71743774 58.9359436 C49.18789926 47.50344206 37.14598813 39.32550798 25.93618774 33.0453186 C25.30712524 32.61734985 24.67806274 32.1893811 24.02993774 31.7484436 C24.02993774 31.0884436 24.02993774 30.4284436 24.02993774 29.7484436 C20.72993774 28.7584436 17.42993774 27.7684436 14.02993774 26.7484436 C14.02993774 26.0884436 14.02993774 25.4284436 14.02993774 24.7484436 C12.85431274 24.4803186 11.67868774 24.2121936 10.46743774 23.9359436 C6.44622482 22.93064037 2.80882774 21.46612088 -0.97006226 19.7484436 C-2.21937243 19.22595777 -3.46936521 18.70510087 -4.72006226 18.1859436 C-7.97006226 16.7484436 -7.97006226 16.7484436 -10.97006226 14.7484436 C-12.40410481 9.37078403 -12.40410481 9.37078403 -11.97006226 6.7484436 C-8.40712978 1.46699764 -6.61663267 -0.00180094 0 0 Z " fill="#D5D5D5" transform="translate(1427.9700622558594,4.251556396484375)"/>
<path d="M0 0 C4.12682652 -0.09343758 7.62704149 0.38966316 11.7578125 1.078125 C11.7578125 16.588125 11.7578125 32.098125 11.7578125 48.078125 C-0.5546875 47.890625 -0.5546875 47.890625 -4.36450195 47.80786133 C-13.67594682 47.74001173 -22.37216173 48.74681722 -30.2421875 54.078125 C-30.9021875 54.078125 -31.5621875 54.078125 -32.2421875 54.078125 C-32.2421875 54.738125 -32.2421875 55.398125 -32.2421875 56.078125 C-32.9021875 56.078125 -33.5621875 56.078125 -34.2421875 56.078125 C-34.4896875 56.635 -34.7371875 57.191875 -34.9921875 57.765625 C-36.2421875 60.078125 -36.2421875 60.078125 -38.15234375 62.359375 C-40.28667905 65.13600559 -41.58928288 67.66435141 -42.9296875 70.890625 C-43.34605469 71.86644531 -43.76242187 72.84226562 -44.19140625 73.84765625 C-46.35096271 80.48688745 -46.3985108 87.32826128 -46.44750977 94.24804688 C-46.45740936 95.12703644 -46.46730896 96.006026 -46.47750854 96.91165161 C-46.50886055 99.79003289 -46.53377592 102.66843061 -46.55859375 105.546875 C-46.57918605 107.55326748 -46.60018309 109.55965584 -46.62156677 111.56604004 C-46.67655255 116.82666677 -46.72606469 122.08733111 -46.77441406 127.34802246 C-46.83367281 133.67078736 -46.89977054 139.99348406 -46.96471405 146.31619263 C-47.06242762 155.90346149 -47.15148593 165.49077569 -47.2421875 175.078125 C-62.7521875 175.078125 -78.2621875 175.078125 -94.2421875 175.078125 C-94.2421875 118.318125 -94.2421875 61.558125 -94.2421875 3.078125 C-79.3921875 3.078125 -64.5421875 3.078125 -49.2421875 3.078125 C-49.2421875 11.658125 -49.2421875 20.238125 -49.2421875 29.078125 C-48.5821875 29.078125 -47.9221875 29.078125 -47.2421875 29.078125 C-47.10103516 27.99144531 -47.10103516 27.99144531 -46.95703125 26.8828125 C-44.97156123 19.09282631 -37.66143855 12.9132003 -31.140625 8.6796875 C-20.96016683 3.05436695 -11.60182854 0.4042449 0 0 Z " fill="#D3D3D3" transform="translate(986.2421875,82.921875)"/>
<path d="M0 0 C15.18 0 30.36 0 46 0 C46 56.76 46 113.52 46 172 C30.82 172 15.64 172 0 172 C0 115.24 0 58.48 0 0 Z " fill="#D5D5D5" transform="translate(1014,86)"/>
<path d="M0 0 C10.36326738 0.20400133 20.82956397 4.2035768 28.375 11.3125 C28.87773437 12.34890625 28.87773437 12.34890625 29.390625 13.40625 C30.22181808 15.47879091 30.22181808 15.47879091 32.33984375 16.28125 C35.04884096 17.65394724 35.63597966 19.0977777 36.9375 21.8125 C37.33066406 22.6065625 37.72382813 23.400625 38.12890625 24.21875 C41.25370125 31.97686173 42.93346482 39.05648853 42.875 47.4375 C42.87290527 48.34113281 42.87081055 49.24476563 42.86865234 50.17578125 C42.66788869 58.86838783 40.57116205 66.25429751 37.375 74.3125 C36.79878906 75.7665625 36.79878906 75.7665625 36.2109375 77.25 C35.93507813 77.930625 35.65921875 78.61125 35.375 79.3125 C34.715 79.3125 34.055 79.3125 33.375 79.3125 C33.148125 79.84875 32.92125 80.385 32.6875 80.9375 C27.86295179 89.66763485 19.45875886 95.0215931 9.984375 97.84375 C-2.95813344 100.16875152 -14.40332452 97.97643011 -25.375 90.96484375 C-34.75744519 84.07461056 -40.19915129 72.47021929 -42.625 61.3125 C-43.04314738 57.38503459 -43.10266232 53.50979244 -43.0625 49.5625 C-43.05420166 48.5091748 -43.04590332 47.45584961 -43.03735352 46.37060547 C-42.76840589 33.92244607 -40.43529927 22.73040611 -31.625 13.3125 C-30.965 13.3125 -30.305 13.3125 -29.625 13.3125 C-29.625 12.6525 -29.625 11.9925 -29.625 11.3125 C-28.965 11.3125 -28.305 11.3125 -27.625 11.3125 C-27.625 10.6525 -27.625 9.9925 -27.625 9.3125 C-18.89450546 2.96304943 -10.55289634 0.90973244 0 0 Z " fill="#020202" transform="translate(235.625,122.6875)"/>
<path d="M0 0 C4.88503645 4.1123125 8.30137522 8.06157241 10.6484375 14.05859375 C11.14730469 15.30962891 11.14730469 15.30962891 11.65625 16.5859375 C15.84491144 28.83116848 14.81860233 44.46201523 9.5234375 56.12109375 C7.06353761 60.53992176 4.36156409 64.77183423 0.5234375 68.12109375 C-0.1365625 68.12109375 -0.7965625 68.12109375 -1.4765625 68.12109375 C-1.4765625 68.78109375 -1.4765625 69.44109375 -1.4765625 70.12109375 C-2.91015625 71.33984375 -2.91015625 71.33984375 -4.9140625 72.62109375 C-5.55214844 73.04390625 -6.19023438 73.46671875 -6.84765625 73.90234375 C-17.3755691 78.78304034 -32.65162153 79.16217602 -43.6015625 75.55859375 C-53.32615761 71.22317054 -59.87766205 64.72397914 -64.4765625 55.12109375 C-68.76792383 43.46585795 -70.61761198 31.06550814 -66.4765625 19.12109375 C-66.24324219 18.34378906 -66.00992188 17.56648438 -65.76953125 16.765625 C-62.59960035 7.42952714 -56.04343982 -0.08655778 -47.44921875 -4.921875 C-30.81725596 -12.99084704 -14.61653192 -11.08919851 0 0 Z " fill="#010101" transform="translate(631.4765625,132.87890625)"/>
<path d="M0 0 C6.29999777 4.67586041 10.51420602 9.35084644 12.1875 17.25 C13.52797869 26.58370349 12.17991506 33.74262174 6.94140625 41.578125 C1.79727929 47.98616522 -4.44817102 51.55534182 -12.62109375 52.453125 C-20.23805653 52.7164515 -27.40695553 51.38177724 -33.49609375 46.453125 C-40.49609375 38.753125 -40.49609375 38.753125 -40.49609375 35.453125 C-41.15609375 35.453125 -41.81609375 35.453125 -42.49609375 35.453125 C-44.82301477 28.47236195 -45.01038976 18.37098481 -42.33203125 11.44140625 C-40.86426249 9.22469907 -39.35179897 7.35270032 -37.49609375 5.453125 C-36.62984375 4.504375 -35.76359375 3.555625 -34.87109375 2.578125 C-34.08734375 1.876875 -33.30359375 1.175625 -32.49609375 0.453125 C-31.89796875 -0.10375 -31.29984375 -0.660625 -30.68359375 -1.234375 C-21.3578777 -6.82980463 -8.99407223 -5.57379124 0 0 Z " fill="#D3D3D3" transform="translate(1052.49609375,4.546875)"/>
<path d="M0 0 C0.97710938 -0.01224609 1.95421875 -0.02449219 2.9609375 -0.03710938 C13.49924116 -0.05841322 20.88571869 2.76605326 29.25 9.1875 C36.37766581 16.40156176 38.25 23.19959938 38.25 33.1875 C13.17 33.1875 -11.91 33.1875 -37.75 33.1875 C-37.75 22.5141182 -33.44204065 16.07330461 -26.23046875 8.390625 C-18.33580895 1.37867519 -10.15255656 0.00659257 0 0 Z " fill="#030303" transform="translate(1338.75,118.8125)"/>
<path d="M0 0 C3.33081569 1.89520831 5.91553587 3.60639877 8.51953125 6.43359375 C8.51953125 7.42359375 8.51953125 8.41359375 8.51953125 9.43359375 C9.133125 9.66820312 9.74671875 9.9028125 10.37890625 10.14453125 C13.1019343 11.78431092 13.62414411 13.12240291 14.76953125 16.05859375 C15.1046875 16.87585938 15.43984375 17.693125 15.78515625 18.53515625 C16.51953125 21.43359375 16.51953125 21.43359375 16.51953125 29.43359375 C-8.56046875 29.43359375 -33.64046875 29.43359375 -59.48046875 29.43359375 C-59.48046875 19.34206678 -56.54309477 13.3973982 -49.73046875 6.05859375 C-36.83038078 -6.04611307 -15.67029305 -7.24982103 0 0 Z " fill="#030303" transform="translate(813.48046875,122.56640625)"/>
<path d="M0 0 C-3.43361902 3.63559661 -6.7973607 6.36113346 -11 9 C-11.66 8.67 -12.32 8.34 -13 8 C-13 7.01 -13 6.02 -13 5 C-11.02 4.34 -9.04 3.68 -7 3 C-7 2.34 -7 1.68 -7 1 C-4.53721199 -0.231394 -2.7204945 -0.07159196 0 0 Z " fill="#CBCBCB" transform="translate(854,241)"/>
<path d="M0 0 C0.33 0 0.66 0 1 0 C1.05441656 1.89551022 1.09298035 3.7914792 1.125 5.6875 C1.14820313 6.74324219 1.17140625 7.79898438 1.1953125 8.88671875 C0.99858729 12.02251859 0.33057654 14.17645373 -1 17 C-1.33 17 -1.66 17 -2 17 C-2.33 15.35 -2.66 13.7 -3 12 C-3.33 12 -3.66 12 -4 12 C-4 9.69 -4 7.38 -4 5 C-3.01 4.67 -2.02 4.34 -1 4 C-0.26676204 1.98491642 -0.26676204 1.98491642 0 0 Z " fill="#BEBEBE" transform="translate(1422,152)"/>
<path d="M0 0 C1.81757812 0.07250977 1.81757812 0.07250977 3.671875 0.14648438 C5.57839844 0.2305957 5.57839844 0.2305957 7.5234375 0.31640625 C9.4415625 0.3947168 9.4415625 0.3947168 11.3984375 0.47460938 C14.5653345 0.60459395 17.73194037 0.73957027 20.8984375 0.87890625 C20.8984375 1.20890625 20.8984375 1.53890625 20.8984375 1.87890625 C17.12765064 2.04663556 13.35680091 2.2129075 9.5859375 2.37890625 C8.51408203 2.42660156 7.44222656 2.47429687 6.33789062 2.5234375 C4.79584961 2.59111328 4.79584961 2.59111328 3.22265625 2.66015625 C1.8008606 2.72299805 1.8008606 2.72299805 0.3503418 2.78710938 C-4.9420452 2.98525112 -4.9420452 2.98525112 -8.1015625 0.87890625 C-5.30455758 -0.51959621 -3.12040891 -0.13123215 0 0 Z " fill="#CECECE" transform="translate(1326.1015625,82.12109375)"/>
<path d="M0 0 C0.66 0.33 1.32 0.66 2 1 C1.2059375 1.68707031 0.411875 2.37414062 -0.40625 3.08203125 C-1.43788765 3.99174809 -2.4691166 4.90192854 -3.5 5.8125 C-4.02464844 6.26431641 -4.54929687 6.71613281 -5.08984375 7.18164062 C-6.45095423 8.39249865 -7.73153413 9.69240937 -9 11 C-9 11.99 -9 12.98 -9 14 C-10.65 14.66 -12.3 15.32 -14 16 C-10.57718637 9.29128528 -6.29955212 4.19970141 0 0 Z " fill="#1D1D1D" transform="translate(582,129)"/>
<path d="M0 0 C0.33 0 0.66 0 1 0 C1.3125 2.8125 1.3125 2.8125 1 6 C-1.25 7.625 -1.25 7.625 -4 9 C-5.36984198 10.29579647 -6.7151049 11.61992749 -8 13 C-8.99 12.67 -9.98 12.34 -11 12 C-10.29875 11.505 -9.5975 11.01 -8.875 10.5 C-5.76915639 7.79926643 -3.60065264 4.95143724 -1.234375 1.609375 C-0.82703125 1.07828125 -0.4196875 0.5471875 0 0 Z " fill="#1F1F1F" transform="translate(277,239)"/>
<path d="M0 0 C1.65 0 3.3 0 5 0 C3.77887968 3.66336097 2.13279518 4.35042014 -1.11328125 6.23046875 C-3 7 -3 7 -7 7 C-6.67 6.01 -6.34 5.02 -6 4 C-4.02 4.495 -4.02 4.495 -2 5 C-1.34 3.35 -0.68 1.7 0 0 Z " fill="#C5C5C5" transform="translate(1049,49)"/>
<path d="M0 0 C0.99 0.33 1.98 0.66 3 1 C2.5206753 5.31392226 1.2542015 7.16569547 -2 10 C-3.06351675 6.61608307 -3.21442982 5.4195366 -1.5625 2.1875 C-1.046875 1.465625 -0.53125 0.74375 0 0 Z " fill="#CCCCCC" transform="translate(677,284)"/>
<path d="M0 0 C1.9375 0.375 1.9375 0.375 4 1 C4.33 1.66 4.66 2.32 5 3 C4.67 3.66 4.34 4.32 4 5 C4.99 5 5.98 5 7 5 C6.67 5.99 6.34 6.98 6 8 C4.72881136 7.20890398 3.45806377 6.41709922 2.1875 5.625 C1.47980469 5.18414062 0.77210937 4.74328125 0.04296875 4.2890625 C-1.65432039 3.21811524 -3.33014358 2.11323761 -5 1 C-3.35 1 -1.7 1 0 1 C0 0.67 0 0.34 0 0 Z " fill="#B7B7B7" transform="translate(1176,124)"/>
<path d="M0 0 C3.29148243 1.13499394 3.9959869 1.99283376 5.75 5.125 C6.1625 6.07375 6.575 7.0225 7 8 C3.59687262 6.94124926 0.98646769 5.99097846 -2 4 C-1.34 2.68 -0.68 1.36 0 0 Z " fill="#C1C1C1" transform="translate(1419,15)"/>
<path d="M0 0 C1.35158203 0.15275391 1.35158203 0.15275391 2.73046875 0.30859375 C3.41753906 0.39238281 4.10460937 0.47617187 4.8125 0.5625 C4.8125 1.5525 4.8125 2.5425 4.8125 3.5625 C0.3575 4.0575 0.3575 4.0575 -4.1875 4.5625 C-4.5175 3.5725 -4.8475 2.5825 -5.1875 1.5625 C-6.1775 1.2325 -7.1675 0.9025 -8.1875 0.5625 C-4.98734144 -0.50421952 -3.30205706 -0.38595472 0 0 Z " fill="#DBDBDB" transform="translate(227.1875,257.4375)"/>
<path d="M0 0 C1.57432497 3.14864995 0.71895552 5.64487425 0 9 C-0.99 9.66 -1.98 10.32 -3 11 C-4.19232613 13.05003955 -4.19232613 13.05003955 -5 15 C-6 12 -6 12 -4.78515625 9.08203125 C-4.21667969 8.00308594 -3.64820313 6.92414063 -3.0625 5.8125 C-2.49660156 4.72582031 -1.93070313 3.63914062 -1.34765625 2.51953125 C-0.90292969 1.68808594 -0.45820313 0.85664062 0 0 Z " fill="#B2B2B2" transform="translate(158,122)"/>
<path d="M0 0 C3 1 3 1 5 5 C1.37 4.67 -2.26 4.34 -6 4 C-2 1 -2 1 0 0 Z " fill="#CCCCCC" transform="translate(218,257)"/>
<path d="M0 0 C0.99 0.33 1.98 0.66 3 1 C1.55746343 4.36591866 -0.33264727 6.51047079 -3 9 C-3.75 7.3125 -3.75 7.3125 -4 5 C-2.0625 2.25 -2.0625 2.25 0 0 Z " fill="#C9C9C9" transform="translate(573,132)"/>
<path d="M0 0 C0.66 0.99 1.32 1.98 2 3 C1.27683594 3.61488281 1.27683594 3.61488281 0.5390625 4.2421875 C-0.09257813 4.78101563 -0.72421875 5.31984375 -1.375 5.875 C-2.00148438 6.40867187 -2.62796875 6.94234375 -3.2734375 7.4921875 C-4.55836651 8.61432007 -5.79371975 9.79371975 -7 11 C-7.66 10.34 -8.32 9.68 -9 9 C-8.01 8.67 -7.02 8.34 -6 8 C-5.67 7.34 -5.34 6.68 -5 6 C-4 4 -4 4 -1 3 C-0.67 2.01 -0.34 1.02 0 0 Z " fill="#292929" transform="translate(670,301)"/>
<path d="M0 0 C0.33 0 0.66 0 1 0 C1 5.28 1 10.56 1 16 C1.99 16.33 2.98 16.66 4 17 C3.34 17.99 2.68 18.98 2 20 C1.34 20 0.68 20 0 20 C0 13.4 0 6.8 0 0 Z " fill="#161616" transform="translate(388,86)"/>
<path d="M0 0 C0 3.92709135 -1.27900462 4.8189713 -3.875 7.6875 C-4.59429688 8.49574219 -5.31359375 9.30398437 -6.0546875 10.13671875 C-8 12 -8 12 -10 12 C-8.4722133 8.56247993 -6.49818944 5.81046312 -4 3 C-3.34 3 -2.68 3 -2 3 C-2 2.34 -2 1.68 -2 1 C-1.34 0.67 -0.68 0.34 0 0 Z " fill="#282828" transform="translate(956,136)"/>
<path d="M0 0 C0.98120464 3.05263664 0.98120464 4.94736336 0 8 C0.66 8.33 1.32 8.66 2 9 C1.01 10.485 1.01 10.485 0 12 C-0.33 11.34 -0.66 10.68 -1 10 C-1.99 10.99 -2.98 11.98 -4 13 C-3.52140759 11.39566191 -3.04210442 9.79153584 -2.5625 8.1875 C-2.29566406 7.29417969 -2.02882813 6.40085938 -1.75390625 5.48046875 C-1.19612127 3.64526945 -0.60655425 1.81966274 0 0 Z " fill="#ACACAC" transform="translate(524,128)"/>
<path d="M0 0 C8.57142857 -0.28571429 8.57142857 -0.28571429 12 2 C8.78548731 3.60725635 5.56387464 3.05748185 2 3 C2 2.34 2 1.68 2 1 C1.34 0.67 0.68 0.34 0 0 Z " fill="#DADADA" transform="translate(1328,115)"/>
<path d="M0 0 C1.32 0.66 2.64 1.32 4 2 C3.67 3.65 3.34 5.3 3 7 C1.0625 6.6875 1.0625 6.6875 -1 6 C-1.33 5.01 -1.66 4.02 -2 3 C-1.34 2.01 -0.68 1.02 0 0 Z " fill="#CDCDCD" transform="translate(556,314)"/>
<path d="M0 0 C1.4540625 0.0309375 1.4540625 0.0309375 2.9375 0.0625 C2.2775 2.3725 1.6175 4.6825 0.9375 7.0625 C-0.0525 6.7325 -1.0425 6.4025 -2.0625 6.0625 C-2.0625 4.7425 -2.0625 3.4225 -2.0625 2.0625 C-2.7225 1.7325 -3.3825 1.4025 -4.0625 1.0625 C-3.0625 0.0625 -3.0625 0.0625 0 0 Z " fill="#C8C8C8" transform="translate(870.0625,210.9375)"/>
<path d="M0 0 C2.64 0 5.28 0 8 0 C8 1.32 8 2.64 8 4 C5.36 4 2.72 4 0 4 C0.66 3.34 1.32 2.68 2 2 C1.34 1.34 0.68 0.68 0 0 Z " fill="#B3B3B3" transform="translate(1336,115)"/>
<path d="M0 0 C0.33 0.99 0.66 1.98 1 3 C-0.62126675 5.03697617 -2.28859531 7.03814584 -4 9 C-4 9.66 -4 10.32 -4 11 C-4.99 11 -5.98 11 -7 11 C-5.5140084 6.40693504 -3.14985318 3.56430755 0 0 Z " fill="#B6B6B6" transform="translate(727,111)"/>
<path d="M0 0 C0 3.68553144 -0.8522582 5.03759752 -3 8 C-5.5625 9.875 -5.5625 9.875 -8 11 C-8.66 10.67 -9.32 10.34 -10 10 C-6.7 6.7 -3.4 3.4 0 0 Z " fill="#B3B3B3" transform="translate(177,99)"/>
<path d="M0 0 C0.94875 0.04125 1.8975 0.0825 2.875 0.125 C1.885 1.61 1.885 1.61 0.875 3.125 C0.215 3.125 -0.445 3.125 -1.125 3.125 C-1.125 3.785 -1.125 4.445 -1.125 5.125 C-1.785 5.125 -2.445 5.125 -3.125 5.125 C-3.455 5.785 -3.785 6.445 -4.125 7.125 C-4.75 4.75 -4.75 4.75 -5.125 2.125 C-3.125 0.125 -3.125 0.125 0 0 Z " fill="#CACACA" transform="translate(209.125,128.875)"/>
<path d="M0 0 C0.66 0.33 1.32 0.66 2 1 C1.67 3.31 1.34 5.62 1 8 C-1.475 7.01 -1.475 7.01 -4 6 C-2.84826645 3.53199953 -1.95216435 1.95216435 0 0 Z " fill="#C0C0C0" transform="translate(1421,5)"/>
<path d="M0 0 C2.97 0.495 2.97 0.495 6 1 C6 1.99 6 2.98 6 4 C3.36 4 0.72 4 -2 4 C-1.34 2.68 -0.68 1.36 0 0 Z " fill="#BABABA" transform="translate(782,259)"/>
<path d="M0 0 C2.18994248 3.28491373 2.35277339 4.83095639 2.625 8.6875 C2.69976563 9.68136719 2.77453125 10.67523438 2.8515625 11.69921875 C2.92503906 12.83810547 2.92503906 12.83810547 3 14 C0.9375 12.0625 0.9375 12.0625 -1 9 C-1.05666696 5.91937821 -0.60438257 3.01534349 0 0 Z " fill="#282828" transform="translate(642,149)"/>
<path d="M0 0 C2.52259061 1.97420135 2.9929808 2.96745642 3.6875 6.1875 C3.790625 7.115625 3.89375 8.04375 4 9 C3.67 8.01 3.34 7.02 3 6 C2.01 6.33 1.02 6.66 0 7 C-1.125 2.25 -1.125 2.25 0 0 Z " fill="#B4B4B4" transform="translate(490,109)"/>
<path d="M0 0 C0.625 1.8125 0.625 1.8125 1 4 C-1 7 -1 7 -3.125 7.6875 C-3.74375 7.790625 -4.3625 7.89375 -5 8 C-5.33 7.01 -5.66 6.02 -6 5 C-4.02 3.35 -2.04 1.7 0 0 Z " fill="#BCBCBC" transform="translate(742,96)"/>
<path d="M0 0 C-2.77079887 3.80984844 -6.62868145 4.06840752 -11 5 C-8.10998474 1.78887193 -4.47884754 -2.23942377 0 0 Z " fill="#ABABAB" transform="translate(197,89)"/>
<path d="M0 0 C-1.98 0.99 -1.98 0.99 -4 2 C-3.67 2.66 -3.34 3.32 -3 4 C-3.99 4.99 -4.98 5.98 -6 7 C-6.33 4.69 -6.66 2.38 -7 0 C-3.86650268 -1.04449911 -3.01031744 -0.93423645 0 0 Z " fill="#C0C0C0" transform="translate(524,267)"/>
<path d="M0 0 C0.99 0.66 1.98 1.32 3 2 C2.75 4.3125 2.75 4.3125 2 7 C0.68 7.99 -0.64 8.98 -2 10 C-1.34 6.7 -0.68 3.4 0 0 Z " fill="#BCBCBC" transform="translate(1259,136)"/>
<path d="M0 0 C0.66 0.99 1.32 1.98 2 3 C0.68 5.31 -0.64 7.62 -2 10 C-2.33 10 -2.66 10 -3 10 C-3.36923077 4.58461538 -3.36923077 4.58461538 -1.5 1.625 C-1.005 1.08875 -0.51 0.5525 0 0 Z " fill="#CDCDCD" transform="translate(1588,34)"/>
<path d="M0 0 C0.99 0.33 1.98 0.66 3 1 C1.8141763 4.37503669 0.72426311 6.64722731 -2 9 C-2.33 7.68 -2.66 6.36 -3 5 C-2.34 4.67 -1.68 4.34 -1 4 C-0.34786708 1.97536745 -0.34786708 1.97536745 0 0 Z " fill="#CBCBCB" transform="translate(1060,37)"/>
<path d="M0 0 C0.33 0 0.66 0 1 0 C1.24954005 1.43410368 1.47392642 2.87260072 1.6875 4.3125 C1.87892578 5.51326172 1.87892578 5.51326172 2.07421875 6.73828125 C2 9 2 9 0.51953125 10.79296875 C0.01808594 11.19128906 -0.48335937 11.58960938 -1 12 C-1.14285714 3.42857143 -1.14285714 3.42857143 0 0 Z " fill="#BCBCBC" transform="translate(708,152)"/>
<path d="M0 0 C3.24299151 2.38957269 5.50902342 4.2047869 7 8 C4.625 7.375 4.625 7.375 2 6 C0.6875 2.875 0.6875 2.875 0 0 Z " fill="#A8A8A8" transform="translate(1400,104)"/>
<path d="M0 0 C0.33 0 0.66 0 1 0 C1.125 2.875 1.125 2.875 1 6 C0.34 6.66 -0.32 7.32 -1 8 C-1.99 8 -2.98 8 -4 8 C-2.87548273 5.0280615 -1.77706209 2.66559313 0 0 Z " fill="#1D1D1D" transform="translate(1599,22)"/>
<path d="M0 0 C2 1 2 1 2.625 2.625 C3.12095645 5.7660575 3.06103811 8.82601831 3 12 C2.67 12 2.34 12 2 12 C2 10.35 2 8.7 2 7 C1.01 7 0.02 7 -1 7 C-0.67 4.69 -0.34 2.38 0 0 Z " fill="#B4B4B4" transform="translate(1597,10)"/>
<path d="M0 0 C0.86625 0.3403125 0.86625 0.3403125 1.75 0.6875 C0.43 2.0075 -0.89 3.3275 -2.25 4.6875 C-3.57 4.0275 -4.89 3.3675 -6.25 2.6875 C-2.80384615 -0.38942308 -2.80384615 -0.38942308 0 0 Z " fill="#C0C0C0" transform="translate(1294.25,94.3125)"/>
<path d="M0 0 C-0.66 0 -1.32 0 -2 0 C-2 0.66 -2 1.32 -2 2 C-4.31 2.33 -6.62 2.66 -9 3 C-9 2.34 -9 1.68 -9 1 C-3.375 -1.125 -3.375 -1.125 0 0 Z " fill="#B9B9B9" transform="translate(776,83)"/>
<path d="M0 0 C0 0.99 0 1.98 0 3 C-0.94875 2.814375 -1.8975 2.62875 -2.875 2.4375 C-5.89868793 1.71313368 -5.89868793 1.71313368 -8 3 C-8.66 2.34 -9.32 1.68 -10 1 C-6.78548731 -0.60725635 -3.56387464 -0.05748185 0 0 Z " fill="#BBBBBB" transform="translate(1328,82)"/>
<path d="M0 0 C3.37462715 0.54723683 5.08235 1.0549 8 3 C5.6875 3.625 5.6875 3.625 3 4 C2.01 3.34 1.02 2.68 0 2 C0 1.34 0 0.68 0 0 Z " fill="#C6C6C6" transform="translate(1397,202)"/>
<path d="M0 0 C0.66 1.32 1.32 2.64 2 4 C2.66 4 3.32 4 4 4 C3.34 6.31 2.68 8.62 2 11 C-0.32590854 7.36576791 -0.16265833 4.22911669 0 0 Z " fill="#191919" transform="translate(499,132)"/>
<path d="M0 0 C0.66 0.99 1.32 1.98 2 3 C1.360625 3.2475 0.72125 3.495 0.0625 3.75 C-2.18741541 4.81562433 -2.18741541 4.81562433 -2.75 7.125 C-2.8325 7.74375 -2.915 8.3625 -3 9 C-3.33 8.01 -3.66 7.02 -4 6 C-2.0625 2.8125 -2.0625 2.8125 0 0 Z " fill="#B0B0B0" transform="translate(1268,119)"/>
<path d="M0 0 C2 3 2 3 1.8125 5.125 C1.544375 5.74375 1.27625 6.3625 1 7 C0.01 7.33 -0.98 7.66 -2 8 C-1.47731534 5.23723823 -0.89130413 2.6739124 0 0 Z " fill="#C8C8C8" transform="translate(1062,16)"/>
<path d="M0 0 C3 1 3 1 7 3 C3.37 3 -0.26 3 -4 3 C-2.68 2.01 -1.36 1.02 0 0 Z " fill="#CBCBCB" transform="translate(801,260)"/>
<path d="M0 0 C1.98 0.99 3.96 1.98 6 3 C5.34 3.66 4.68 4.32 4 5 C2.02 4.01 0.04 3.02 -2 2 C-1.34 1.34 -0.68 0.68 0 0 Z " fill="#CACACA" transform="translate(579,203)"/>
</svg>
